<?xml version="1.0" encoding="UTF-8" standalone="no"?><!DOCTYPE svg PUBLIC "-//W3C//DTD SVG 1.1//EN" "http://www.w3.org/Graphics/SVG/1.1/DTD/svg11.dtd"><svg width="100%" height="100%" viewBox="0 0 393 70" version="1.1" xmlns="http://www.w3.org/2000/svg" xmlns:xlink="http://www.w3.org/1999/xlink" xml:space="preserve" xmlns:serif="http://www.serif.com/" style="fill-rule:evenodd;clip-rule:evenodd;stroke-linejoin:round;stroke-miterlimit:1.5;"><path d="M392.604,43.68c0,-12.977 -10.536,-23.513 -23.514,-23.513l-345.18,0c-12.978,0 -23.514,10.536 -23.514,23.513c0,12.978 10.536,23.514 23.514,23.514l345.18,0c12.978,0 23.514,-10.536 23.514,-23.514Z" style="fill:#fde154;"/><ellipse cx="307.517" cy="42.738" rx="25.458" ry="26.708" style="fill:none;stroke:#000;stroke-width:2px;stroke-dasharray:2,0.1,2,2;"/><path d="M247.588,36.178l0,-2.608" style="fill:none;fill-rule:nonzero;stroke:#000;stroke-width:1.74px;stroke-linecap:round;stroke-miterlimit:4;"/><path d="M244.98,43.133c0,1.304 1.168,1.739 2.608,1.739c1.44,0 2.608,0 2.608,-1.739c0,-2.608 -5.216,-2.608 -5.216,-5.216c0,-1.739 1.168,-1.739 2.608,-1.739c1.44,0 2.608,0.659 2.608,1.739" style="fill:none;fill-rule:nonzero;stroke:#000;stroke-width:1.74px;stroke-linecap:round;stroke-miterlimit:4;"/><path d="M247.588,44.872l0,2.608" style="fill:none;fill-rule:nonzero;stroke:#000;stroke-width:1.74px;stroke-linecap:round;stroke-miterlimit:4;"/><circle cx="247.588" cy="40.525" r="11.302" style="fill:none;stroke:#000;stroke-width:1.74px;stroke-linecap:round;stroke-miterlimit:4;"/><path d="M370.775,16.77l0,-2.608" style="fill:none;fill-rule:nonzero;stroke:#000;stroke-width:1.74px;stroke-linecap:round;stroke-miterlimit:4;"/><path d="M368.167,23.725c0,1.304 1.168,1.739 2.608,1.739c1.44,0 2.608,0 2.608,-1.739c0,-2.608 -5.216,-2.608 -5.216,-5.216c0,-1.739 1.168,-1.739 2.608,-1.739c1.44,0 2.608,0.659 2.608,1.739" style="fill:none;fill-rule:nonzero;stroke:#000;stroke-width:1.74px;stroke-linecap:round;stroke-miterlimit:4;"/><path d="M370.775,25.464l0,2.608" style="fill:none;fill-rule:nonzero;stroke:#000;stroke-width:1.74px;stroke-linecap:round;stroke-miterlimit:4;"/><circle cx="370.775" cy="21.117" r="11.302" style="fill:none;stroke:#000;stroke-width:1.74px;stroke-linecap:round;stroke-miterlimit:4;"/><clipPath id="_clip1"><rect id="money-cash-dollar-coin" x="286.196" y="21.008" width="43.007" height="42.971"/></clipPath><g clip-path="url(#_clip1)"><path d="M307.699,34.82l0,-4.604" style="fill:none;fill-rule:nonzero;stroke:#000;stroke-width:3.07px;stroke-linecap:round;stroke-miterlimit:4;"/><path d="M303.092,47.097c0,2.302 2.064,3.07 4.607,3.07c2.544,0 4.608,0 4.608,-3.07c0,-4.604 -9.215,-4.604 -9.215,-9.208c0,-3.069 2.064,-3.069 4.607,-3.069c2.544,0 4.608,1.163 4.608,3.069" style="fill:none;fill-rule:nonzero;stroke:#000;stroke-width:3.07px;stroke-linecap:round;stroke-miterlimit:4;"/><path d="M307.699,50.167l0,4.604" style="fill:none;fill-rule:nonzero;stroke:#000;stroke-width:3.07px;stroke-linecap:round;stroke-miterlimit:4;"/><ellipse cx="307.699" cy="42.493" rx="19.968" ry="19.951" style="fill:none;stroke:#000;stroke-width:3.07px;stroke-linecap:round;stroke-miterlimit:4;"/></g><circle cx="113.683" cy="36.363" r="3.438" style="fill:none;stroke:#000;stroke-width:2px;"/><circle cx="356.183" cy="48.363" r="3.438" style="fill:none;stroke:#000;stroke-width:2px;"/><g><path d="M146.371,41.675l-3.714,3.714" style="fill:none;stroke:#000;stroke-width:2px;"/><path d="M135.496,41.675l3.863,3.863" style="fill:none;stroke:#000;stroke-width:2px;"/><path d="M146.371,52.55l-3.982,-3.981" style="fill:none;stroke:#000;stroke-width:2px;"/><path d="M135.496,52.55l4.427,-4.427" style="fill:none;stroke:#000;stroke-width:2px;"/></g><g><path d="M174.058,35.738l23.645,0" style="fill:none;stroke:#000;stroke-width:2px;"/><path d="M200.753,35.738l7.055,0" style="fill:none;stroke:#000;stroke-width:2px;"/><path d="M206.855,41.738l-16.03,0" style="fill:none;stroke:#000;stroke-width:2px;"/><path d="M188.757,41.738l-4.783,0" style="fill:none;stroke:#000;stroke-width:2px;"/></g><circle cx="31.452" cy="12.222" r="9.786" style="fill:none;stroke:#000;stroke-width:3.26px;stroke-linecap:round;stroke-miterlimit:4;"/><circle cx="54.285" cy="15.484" r="6.524" style="fill:none;stroke:#000;stroke-width:3.26px;stroke-linecap:round;stroke-miterlimit:4;"/><path d="M57.547,31.793c0,-1.8 -1.462,-3.261 -3.262,-3.261l-19.571,0c-1.801,0 -3.262,1.461 -3.262,3.261l0,9.786c0,1.801 1.461,3.262 3.262,3.262l19.571,0c1.8,0 3.262,-1.461 3.262,-3.262l0,-9.786Z" style="fill:none;stroke:#000;stroke-width:3.26px;stroke-linecap:round;stroke-miterlimit:4;"/><path d="M64.071,31.793l0,9.786" style="fill:none;fill-rule:nonzero;stroke:#000;stroke-width:3.26px;stroke-linecap:round;stroke-miterlimit:4;"/></svg>