<?xml version="1.0" encoding="UTF-8" standalone="no"?><!DOCTYPE svg PUBLIC "-//W3C//DTD SVG 1.1//EN" "http://www.w3.org/Graphics/SVG/1.1/DTD/svg11.dtd"><svg width="100%" height="100%" viewBox="0 0 58 77" version="1.1" xmlns="http://www.w3.org/2000/svg" xmlns:xlink="http://www.w3.org/1999/xlink" xml:space="preserve" xmlns:serif="http://www.serif.com/" style="fill-rule:evenodd;clip-rule:evenodd;stroke-linejoin:round;stroke-miterlimit:1.5;"><path d="M34.097,0.842c12.978,0 23.514,10.536 23.514,23.514l0,28.288c0,12.978 -10.536,23.514 -23.514,23.514c-12.977,0 -23.513,-10.536 -23.513,-23.514l0,-28.288c0,-12.978 10.536,-23.514 23.513,-23.514Z" style="fill:#fde154;"/><g><path d="M44.792,59.238l-3.714,3.714" style="fill:none;stroke:#000;stroke-width:2px;"/><path d="M33.917,59.238l3.863,3.863" style="fill:none;stroke:#000;stroke-width:2px;"/><path d="M44.792,70.113l-3.981,-3.981" style="fill:none;stroke:#000;stroke-width:2px;"/><path d="M33.917,70.113l4.428,-4.427" style="fill:none;stroke:#000;stroke-width:2px;"/></g><path d="M40.687,38.325l-32.807,-3.351c-1.13,-0.115 -2.043,-0.898 -2.267,-1.942l-0.565,-2.643c-0.224,-1.045 0.29,-2.133 1.274,-2.7l28.563,-16.481c0.129,-0.075 0.27,-0.129 0.417,-0.161c0.721,-0.154 1.433,0.273 1.578,0.946l5.308,24.809c0.137,0.671 -0.338,1.346 -1.055,1.499c-0.147,0.031 -0.298,0.04 -0.446,0.024Z" style="fill:none;fill-rule:nonzero;stroke:#000;stroke-width:2.6px;stroke-linecap:round;stroke-miterlimit:4;"/><path d="M28.262,37.056c-0.569,2.848 -2.925,5.147 -5.936,5.791c-4.058,0.868 -8.065,-1.535 -8.876,-5.325c-0.139,-0.652 -0.179,-1.322 -0.118,-1.991" style="fill:none;fill-rule:nonzero;stroke:#000;stroke-width:2.6px;stroke-linecap:round;stroke-miterlimit:4;"/></svg>