<?xml version="1.0" encoding="UTF-8" standalone="no"?><!DOCTYPE svg PUBLIC "-//W3C//DTD SVG 1.1//EN" "http://www.w3.org/Graphics/SVG/1.1/DTD/svg11.dtd"><svg width="100%" height="100%" viewBox="0 0 63 86" version="1.1" xmlns="http://www.w3.org/2000/svg" xmlns:xlink="http://www.w3.org/1999/xlink" xml:space="preserve" xmlns:serif="http://www.serif.com/" style="fill-rule:evenodd;clip-rule:evenodd;stroke-linejoin:round;stroke-miterlimit:1.5;"><path d="M23.744,0.842c12.978,0 23.514,10.536 23.514,23.514l0,37.288c0,12.978 -10.536,23.514 -23.514,23.514c-12.977,0 -23.513,-10.536 -23.513,-23.514l0,-37.288c0,-12.978 10.536,-23.514 23.513,-23.514Z" style="fill:#fde154;"/><circle cx="31.252" cy="13.426" r="3.438" style="fill:none;stroke:#000;stroke-width:2px;"/><g><clipPath id="_clip1"><rect id="travel-map-location-target-1" x="23.103" y="40.463" width="31.917" height="30.417"/></clipPath><g clip-path="url(#_clip1)"><ellipse cx="39.061" cy="55.671" rx="10.259" ry="9.777" style="fill:none;stroke:#000;stroke-width:2.23px;stroke-linecap:round;stroke-miterlimit:4;"/><ellipse cx="39.061" cy="55.671" rx="1.14" ry="1.086" style="fill:none;stroke:#000;stroke-width:2.23px;stroke-linecap:round;stroke-miterlimit:4;"/><path d="M39.061,45.894l0,-4.345" style="fill:none;fill-rule:nonzero;stroke:#000;stroke-width:2.23px;stroke-linecap:round;stroke-miterlimit:4;"/><path d="M39.061,69.793l0,-4.345" style="fill:none;fill-rule:nonzero;stroke:#000;stroke-width:2.23px;stroke-linecap:round;stroke-miterlimit:4;"/><path d="M49.32,55.671l4.559,0" style="fill:none;fill-rule:nonzero;stroke:#000;stroke-width:2.23px;stroke-linecap:round;stroke-miterlimit:4;"/><path d="M24.242,55.671l4.56,0" style="fill:none;fill-rule:nonzero;stroke:#000;stroke-width:2.23px;stroke-linecap:round;stroke-miterlimit:4;"/></g><circle cx="38.686" cy="55.046" r="15.482" style="fill:none;stroke:#000;stroke-width:3.44px;stroke-linecap:round;stroke-miterlimit:4;"/><path d="M38.686,39.564l0,-6.881" style="fill:none;fill-rule:nonzero;stroke:#000;stroke-width:3.44px;stroke-linecap:round;stroke-miterlimit:4;"/><path d="M38.686,77.409l0,-6.881" style="fill:none;fill-rule:nonzero;stroke:#000;stroke-width:3.44px;stroke-linecap:round;stroke-miterlimit:4;"/><path d="M54.168,55.046l6.881,0" style="fill:none;fill-rule:nonzero;stroke:#000;stroke-width:3.44px;stroke-linecap:round;stroke-miterlimit:4;"/><path d="M16.323,55.046l6.881,0" style="fill:none;fill-rule:nonzero;stroke:#000;stroke-width:3.44px;stroke-linecap:round;stroke-miterlimit:4;"/></g></svg>