<?xml version="1.0" encoding="UTF-8" standalone="no"?><!DOCTYPE svg PUBLIC "-//W3C//DTD SVG 1.1//EN" "http://www.w3.org/Graphics/SVG/1.1/DTD/svg11.dtd"><svg width="100%" height="100%" viewBox="0 0 86 68" version="1.1" xmlns="http://www.w3.org/2000/svg" xmlns:xlink="http://www.w3.org/1999/xlink" xml:space="preserve" xmlns:serif="http://www.serif.com/" style="fill-rule:evenodd;clip-rule:evenodd;stroke-linecap:round;stroke-linejoin:round;"><path d="M75.555,43.59c0,12.977 -10.536,23.513 -23.514,23.513l-28.288,0c-12.977,0 -23.513,-10.536 -23.513,-23.513c0,-12.978 10.536,-23.514 23.513,-23.514l28.288,0c12.978,0 23.514,10.536 23.514,23.514Z" style="fill:#fde154;"/><clipPath id="_clip1"><rect id="entertainment-play-list-1" x="20.953" y="0.897" width="64.807" height="43.49"/></clipPath><g clip-path="url(#_clip1)"><path d="M83.446,5.556c0,-1.714 -2.074,-3.106 -4.629,-3.106l-50.92,0c-2.555,0 -4.629,1.392 -4.629,3.106l0,34.171c0,1.715 2.074,3.107 4.629,3.107l50.92,0c2.555,0 4.629,-1.392 4.629,-3.107l0,-34.171Z" style="fill:none;stroke:#000;stroke-width:3.94px;"/><path d="M46.358,33.704l0,-11.901c0,-0.62 0.76,-1.131 1.685,-1.131c0.299,0 0.593,0.054 0.851,0.156l15.198,5.948c0.517,0.203 0.836,0.576 0.836,0.977c0,0.402 -0.319,0.775 -0.836,0.977l-15.198,5.949c-0.258,0.102 -0.552,0.155 -0.851,0.155c-0.925,0 -1.685,-0.51 -1.685,-1.13Z" style="fill:none;fill-rule:nonzero;stroke:#000;stroke-width:3.94px;"/><path d="M23.268,13.322l60.178,0" style="fill:none;fill-rule:nonzero;stroke:#000;stroke-width:3.94px;"/><path d="M39.47,13.322l6.943,-10.872" style="fill:none;fill-rule:nonzero;stroke:#000;stroke-width:3.94px;"/><path d="M60.3,13.322l6.944,-10.872" style="fill:none;fill-rule:nonzero;stroke:#000;stroke-width:3.94px;"/></g></svg>