<?xml version="1.0" encoding="UTF-8" standalone="no"?><!DOCTYPE svg PUBLIC "-//W3C//DTD SVG 1.1//EN" "http://www.w3.org/Graphics/SVG/1.1/DTD/svg11.dtd"><svg width="100%" height="100%" viewBox="0 0 53 196" version="1.1" xmlns="http://www.w3.org/2000/svg" xmlns:xlink="http://www.w3.org/1999/xlink" xml:space="preserve" xmlns:serif="http://www.serif.com/" style="fill-rule:evenodd;clip-rule:evenodd;stroke-linejoin:round;stroke-miterlimit:1.5;"><path d="M29.398,0.842c12.977,0 23.513,10.536 23.513,23.514l0,147.288c0,12.978 -10.536,23.514 -23.513,23.514c-12.978,0 -23.514,-10.536 -23.514,-23.514l0,-147.288c0,-12.978 10.536,-23.514 23.514,-23.514Z" style="fill:#fde154;"/><g><path d="M39.093,112.738l-3.714,3.714" style="fill:none;stroke:#000;stroke-width:2px;"/><path d="M28.218,112.738l3.862,3.863" style="fill:none;stroke:#000;stroke-width:2px;"/><path d="M39.093,123.613l-3.982,-3.981" style="fill:none;stroke:#000;stroke-width:2px;"/><path d="M28.218,123.613l4.427,-4.427" style="fill:none;stroke:#000;stroke-width:2px;"/></g><clipPath id="_clip1"><rect id="shopping-cart-2" x="12.384" y="32.338" width="22.917" height="22.917"/></clipPath><g clip-path="url(#_clip1)"><path d="M15.851,46.252l12.411,0l1.637,-9.003l-15.387,0c-0.449,0 -0.818,0.369 -0.818,0.818c0,0.049 0.004,0.098 0.013,0.146l1.339,7.366c0.07,0.388 0.411,0.673 0.805,0.673Z" style="fill:none;fill-rule:nonzero;stroke:#000;stroke-width:1.64px;stroke-linecap:round;stroke-miterlimit:4;"/><path d="M29.899,37.249l0.687,-3.438c0.078,-0.38 0.415,-0.655 0.803,-0.655l2.602,0" style="fill:none;fill-rule:nonzero;stroke:#000;stroke-width:1.64px;stroke-linecap:round;stroke-miterlimit:4;"/><path d="M28.262,46.252l-0.687,3.437c-0.078,0.38 -0.415,0.655 -0.803,0.655l-9.15,0" style="fill:none;fill-rule:nonzero;stroke:#000;stroke-width:1.64px;stroke-linecap:round;stroke-miterlimit:4;"/><circle cx="18.442" cy="53.618" r="0.818" style="fill:none;stroke:#000;stroke-width:1.64px;stroke-linecap:round;stroke-miterlimit:4;"/><circle cx="25.808" cy="53.618" r="0.818" style="fill:none;stroke:#000;stroke-width:1.64px;stroke-linecap:round;stroke-miterlimit:4;"/></g><circle cx="22.089" cy="41.546" r="21" style="fill:none;stroke:#000;stroke-width:2px;"/><path d="M33.877,71.912c1.898,0.416 3.185,2.413 2.912,4.515l-1.119,8.587c-0.128,0.987 -0.906,1.728 -1.815,1.728l-11.838,0c-0.748,0 -1.425,-0.503 -1.703,-1.266l-1.952,-5.355c-0.705,-1.933 0.068,-4.164 1.765,-5.094l2.483,-1.363l0,-10.059c0,-1.656 1.241,-3.018 2.75,-3.018c1.508,0 2.75,1.362 2.75,3.018l0,7.042l5.767,1.265Z" style="fill:none;fill-rule:nonzero;stroke:#000;stroke-width:1.92px;stroke-linecap:round;stroke-miterlimit:4;"/><g><path d="M15.655,140.926l0,23.644" style="fill:none;stroke:#000;stroke-width:2px;"/><path d="M15.655,167.621l0,7.055" style="fill:none;stroke:#000;stroke-width:2px;"/><path d="M21.655,173.722l0,-16.03" style="fill:none;stroke:#000;stroke-width:2px;"/><path d="M21.655,155.624l0,-4.783" style="fill:none;stroke:#000;stroke-width:2px;"/></g></svg>