<?xml version="1.0" encoding="UTF-8" standalone="no"?><!DOCTYPE svg PUBLIC "-//W3C//DTD SVG 1.1//EN" "http://www.w3.org/Graphics/SVG/1.1/DTD/svg11.dtd"><svg width="100%" height="100%" viewBox="0 0 195 49" version="1.1" xmlns="http://www.w3.org/2000/svg" xmlns:xlink="http://www.w3.org/1999/xlink" xml:space="preserve" xmlns:serif="http://www.serif.com/" style="fill-rule:evenodd;clip-rule:evenodd;stroke-linejoin:round;stroke-miterlimit:1.5;"><path d="M0.329,24.359c0,-12.977 10.536,-23.513 23.513,-23.513l147.289,0c12.977,0 23.513,10.536 23.513,23.513c0,12.978 -10.536,23.514 -23.513,23.514l-147.289,0c-12.977,0 -23.513,-10.536 -23.513,-23.514Z" style="fill:#fde154;"/><g><path d="M86.182,29.597l-3.714,3.715" style="fill:none;stroke:#000;stroke-width:2px;"/><path d="M75.307,29.597l3.863,3.863" style="fill:none;stroke:#000;stroke-width:2px;"/><path d="M86.182,40.472l-3.982,-3.981" style="fill:none;stroke:#000;stroke-width:2px;"/><path d="M75.307,40.472l4.427,-4.427" style="fill:none;stroke:#000;stroke-width:2px;"/></g><g><path d="M56.119,14.66l-23.644,0" style="fill:none;stroke:#000;stroke-width:2px;"/><path d="M29.424,14.66l-7.055,0" style="fill:none;stroke:#000;stroke-width:2px;"/><path d="M23.323,20.66l16.03,0" style="fill:none;stroke:#000;stroke-width:2px;"/><path d="M41.421,20.66l4.783,0" style="fill:none;stroke:#000;stroke-width:2px;"/></g><clipPath id="_clip1"><polygon id="interface-share-mega-phone-2" points="177.869,13.02 147.708,4.225 138.913,34.385 169.073,43.181 177.869,13.02 "/></clipPath><g clip-path="url(#_clip1)"><path d="M169.486,21.728l-2.155,-0.628l-2.513,8.617l2.155,0.628c2.363,0.689 4.876,-0.688 5.565,-3.052c0.689,-2.364 -0.689,-4.876 -3.052,-5.565Z" style="fill:none;fill-rule:nonzero;stroke:#000;stroke-width:2.24px;stroke-linecap:round;stroke-miterlimit:4;"/><path d="M167.331,21.1l-17.744,-12.641c-0.144,-0.123 -0.312,-0.215 -0.494,-0.268c-0.634,-0.185 -1.315,0.129 -1.586,0.732l-5.663,19.419c-0.098,0.65 0.304,1.28 0.935,1.464c0.161,0.047 0.328,0.063 0.495,0.047l21.544,-0.136l2.513,-8.617Z" style="fill:none;fill-rule:nonzero;stroke:#000;stroke-width:2.24px;stroke-linecap:round;stroke-miterlimit:4;"/><path d="M158.338,36.462c3.035,0.333 5.899,-1.58 6.753,-4.511c0.198,-0.677 0.28,-1.382 0.245,-2.086" style="fill:none;fill-rule:nonzero;stroke:#000;stroke-width:2.24px;stroke-linecap:round;stroke-miterlimit:4;"/></g><circle cx="110.994" cy="22.785" r="3.438" style="fill:none;stroke:#000;stroke-width:2px;"/></svg>