<?xml version="1.0" encoding="UTF-8"?>
<svg xmlns="http://www.w3.org/2000/svg" width="512" height="512" viewBox="0 0 512 512"><g><path d="M476,48H36A28.031,28.031,0,0,0,8,76V388a28.031,28.031,0,0,0,28,28H190.56l-5.34,32H128a8,8,0,0,0,0,16H444a28.031,28.031,0,0,0,28-28V416h4a28.031,28.031,0,0,0,28-28V76A28.031,28.031,0,0,0,476,48ZM36,400a12.01,12.01,0,0,1-12-12V368H296v32Zm165.44,48,5.34-32H296v20a27.75,27.75,0,0,0,2.71,12ZM456,436a12.01,12.01,0,0,1-12,12H324a12.01,12.01,0,0,1-12-12V220a12.01,12.01,0,0,1,12-12h22.46l7.05,18.81A8.005,8.005,0,0,0,361,232h47a8,8,0,0,0,7.59-5.47L421.77,208H444a12.01,12.01,0,0,1,12,12ZM363.54,208H404.9l-2.67,8H366.54ZM488,388a12.01,12.01,0,0,1-12,12h-4V368h16Zm0-36H472V220a28.031,28.031,0,0,0-28-28H324a28.031,28.031,0,0,0-28,28V352H24V76A12.01,12.01,0,0,1,36,64h84v67.06L76.42,152.84A8.011,8.011,0,0,0,72,160V272a8,8,0,0,0,8,8h96a8,8,0,0,0,8-8V160a8.011,8.011,0,0,0-4.42-7.16L136,131.06V64H476a12.01,12.01,0,0,1,12,12ZM128,144.94l40,20V264H88V164.94Z"/><path d="M96,376H40a8,8,0,0,0,0,16H96a8,8,0,0,0,0-16Z"/><path d="M128,376h-8a8,8,0,0,0,0,16h8a8,8,0,0,0,0-16Z"/><path d="M112,240a7.974,7.974,0,0,0,5.657-2.343l32-32a8,8,0,0,0-11.314-11.314l-32,32A8,8,0,0,0,112,240Z"/><circle cx="112" cy="200" r="8"/><circle cx="144" cy="232" r="8"/><path d="M394.343,314.343l-32,32a8,8,0,0,0,11.314,11.314l32-32a8,8,0,0,0-11.314-11.314Z"/><circle cx="368" cy="320" r="8"/><circle cx="400" cy="352" r="8"/></g></svg>
