<?xml version="1.0" encoding="iso-8859-1"?>
<!-- Generator: Adobe Illustrator 19.0.0, SVG Export Plug-In . SVG Version: 6.00 Build 0)  -->
<svg version="1.1" id="Capa_1" xmlns="http://www.w3.org/2000/svg" xmlns:xlink="http://www.w3.org/1999/xlink" x="0px" y="0px"
	 viewBox="0 0 480 480" style="enable-background:new 0 0 480 480;" xml:space="preserve">
<g>
	<g>
		<path d="M240,0C107.452,0,0,107.452,0,240s107.452,240,240,240s240-107.452,240-240C479.85,107.514,372.486,0.15,240,0z
			 M189.131,21.896C169.338,39.989,152.597,68.423,140.552,104H62.179C93.726,62.771,138.591,33.756,189.131,21.896z M51,120h84.616
			c-9.971,36.51-15.187,74.154-15.518,112H16.203C17.576,192.226,29.593,153.549,51,120z M16.203,248h103.895
			c0.331,37.846,5.547,75.49,15.518,112H51C29.593,326.451,17.576,287.774,16.203,248z M62.179,376h78.373
			c12.044,35.577,28.786,64.01,48.58,82.104C138.591,446.244,93.726,417.228,62.179,376z M232,463.236
			c-29.674-5.138-56.297-38.469-73.939-87.236H232V463.236z M232,360h-79.232c-10.624-36.402-16.232-74.082-16.67-112H232V360z
			 M232,232h-95.902c0.438-37.918,6.046-75.598,16.67-112H232V232z M232,104h-73.939C175.703,55.233,202.326,21.901,232,16.764V104z
			 M463.797,232H359.902c-0.331-37.846-5.547-75.49-15.518-112H429C450.407,153.549,462.424,192.226,463.797,232z M417.821,104
			h-78.373c-12.044-35.577-28.786-64.011-48.579-82.104C341.409,33.756,386.274,62.772,417.821,104z M248,16.764
			c29.674,5.138,56.297,38.469,73.939,87.236H248V16.764z M248,120h79.232c10.624,36.402,16.232,74.082,16.67,112H248V120z M248,248
			h95.902c-0.438,37.918-6.046,75.598-16.67,112H248V248z M248,463.236V376h73.939C304.297,424.767,277.674,458.099,248,463.236z
			 M290.868,458.104c19.793-18.093,36.535-46.527,48.58-82.104h78.373C386.274,417.229,341.409,446.244,290.868,458.104z M429,360
			h-84.616c9.971-36.51,15.187-74.154,15.518-112h103.895C462.424,287.774,450.407,326.451,429,360z"/>
	</g>
</g>
<g>
</g>
<g>
</g>
<g>
</g>
<g>
</g>
<g>
</g>
<g>
</g>
<g>
</g>
<g>
</g>
<g>
</g>
<g>
</g>
<g>
</g>
<g>
</g>
<g>
</g>
<g>
</g>
<g>
</g>
</svg>
