<svg height="512" viewBox="0 0 512 512" width="512" xmlns="http://www.w3.org/2000/svg"><g id="outline"><circle cx="368" cy="72" r="8"/><circle cx="440" cy="120" r="8"/><circle cx="240" cy="80" r="8"/><circle cx="96" cy="56" r="8"/><circle cx="48" cy="176" r="8"/><circle cx="480" cy="200" r="8"/><circle cx="208" cy="168" r="8"/><circle cx="408" cy="344" r="8"/><circle cx="112" cy="328" r="8"/><circle cx="32" cy="304" r="8"/><circle cx="480" cy="448" r="8"/><circle cx="72" cy="464" r="8"/><circle cx="128" cy="112" r="8"/><path d="m82.964 233.592a8 8 0 0 0 -1.619 11.2c3.65 4.884 7.721 11.853 6.39 17.318-.708 2.91-2.729 5-5.967 8.165-4.058 3.968-9.107 8.907-9.746 17.108-.585 7.536 2.807 15.035 10.084 22.287a8 8 0 0 0 11.294-11.337c-3.753-3.74-5.629-7.1-5.425-9.712.155-2 1.636-3.64 4.98-6.91 3.786-3.7 8.5-8.311 10.326-15.818 2.252-9.248-.816-19.571-9.119-30.682a8 8 0 0 0 -11.198-1.619z"/><path d="m477.429 410.341c-3.745-3.742-5.617-7.1-5.413-9.722.155-2 1.633-3.645 4.968-6.915 3.777-3.7 8.477-8.311 10.3-15.816 2.244-9.243-.816-19.561-9.1-30.669a8 8 0 0 0 -12.828 9.562c3.642 4.886 7.7 11.859 6.376 17.331-.708 2.911-2.723 5-5.953 8.167-4.047 3.968-9.084 8.906-9.72 17.1-.584 7.532 2.8 15.027 10.057 22.278a8 8 0 1 0 11.309-11.318z"/><path d="m394.566 317.654a8 8 0 0 0 11.314 0c7.257-7.251 10.641-14.746 10.057-22.278-.636-8.2-5.673-13.134-9.72-17.1-3.23-3.167-5.245-5.256-5.953-8.167-1.328-5.472 2.734-12.445 6.376-17.331a8 8 0 0 0 -12.828-9.562c-8.28 11.108-11.34 21.426-9.1 30.67 1.824 7.5 6.523 12.112 10.3 15.815 3.335 3.27 4.813 4.912 4.968 6.915.2 2.619-1.668 5.98-5.413 9.722a8 8 0 0 0 -.001 11.316z"/><path d="m27.016 249.7c3.335 3.27 4.813 4.912 4.968 6.915.2 2.618-1.669 5.98-5.413 9.722a8 8 0 1 0 11.309 11.322c7.258-7.252 10.641-14.747 10.057-22.278-.636-8.2-5.673-13.134-9.72-17.1-3.23-3.167-5.246-5.256-5.953-8.167-1.329-5.474 2.736-12.447 6.376-17.333a8 8 0 1 0 -12.828-9.562c-8.28 11.107-11.34 21.426-9.1 30.669 1.827 7.505 6.527 12.112 10.304 15.812z"/><path d="m424 72h8v8a8 8 0 0 0 16 0v-8h8a8 8 0 0 0 0-16h-8v-8a8 8 0 0 0 -16 0v8h-8a8 8 0 0 0 0 16z"/><path d="m416 392h-8v-8a8 8 0 0 0 -16 0v8h-8a8 8 0 0 0 0 16h8v8a8 8 0 0 0 16 0v-8h8a8 8 0 0 0 0-16z"/><path d="m80 368h-8v-8a8 8 0 0 0 -16 0v8h-8a8 8 0 0 0 0 16h8v8a8 8 0 0 0 16 0v-8h8a8 8 0 0 0 0-16z"/><path d="m48 112h8v8a8 8 0 0 0 16 0v-8h8a8 8 0 0 0 0-16h-8v-8a8 8 0 0 0 -16 0v8h-8a8 8 0 0 0 0 16z"/><path d="m304 80a32 32 0 1 0 -32-32 32.036 32.036 0 0 0 32 32zm0-48a16 16 0 1 1 -16 16 16.019 16.019 0 0 1 16-16z"/><path d="m136 384a32 32 0 1 0 32 32 32.036 32.036 0 0 0 -32-32zm0 48a16 16 0 1 1 16-16 16.019 16.019 0 0 1 -16 16z"/><path d="m496 256a32 32 0 1 0 -32 32 32.036 32.036 0 0 0 32-32zm-48 0a16 16 0 1 1 16 16 16.019 16.019 0 0 1 -16-16z"/><path d="m73.125 165.216a8 8 0 0 0 10.967 2.784c17.826-10.611 39.611-10.689 55.5-.2 16.172 10.678 19.768 28.2 20.486 33.311a8 8 0 1 0 15.844-2.222c-.952-6.792-5.75-30.071-27.514-44.441-20.975-13.849-49.432-13.927-72.5-.2a8 8 0 0 0 -2.783 10.968z"/><path d="m140.554 46.378c6.852-5.187 12.952-7.441 17.633-6.527 6.83 1.337 13.512 9.338 18.334 21.949 5.779 15.117 8.341 35.642 7.214 57.794a8 8 0 0 0 7.584 8.4c.138.007.276.01.413.01a8 8 0 0 0 7.983-7.594c2.63-51.724-13.182-91.307-38.452-96.257-9.413-1.841-19.63 1.344-30.367 9.473a8 8 0 0 0 9.658 12.756z"/><path d="m274.912 208.425a8 8 0 0 0 7.954-8.941c-7.948-67.156 3.28-71.37 3.4-71.4.289-.085 7.28-1.867 27.7 21.6a8 8 0 0 0 12.068-10.5c-18.994-21.82-32.694-29.958-44.421-26.4-17 5.16-21.375 31.656-14.636 88.6a8 8 0 0 0 7.935 7.041z"/><path d="m449.672 180.917a8 8 0 0 0 12.656-9.79c-3.624-4.685-23.261-28.022-54.56-27.1-29.5.857-55.62 23.07-63.519 54.018a8 8 0 1 0 15.5 3.957c6.144-24.067 26.08-41.331 48.481-41.981 24.02-.688 39.731 18.679 41.442 20.896z"/><path d="m330.755 228.779c-20.032-3.079-46.581-4.779-74.755-4.779s-54.723 1.7-74.755 4.779c-26.454 4.07-37.245 9.639-37.245 19.221a10.585 10.585 0 0 0 2.064 6.421l102.6 236.76a8 8 0 0 0 14.68 0l102.6-236.76a10.585 10.585 0 0 0 2.056-6.421c0-9.582-10.791-15.151-37.245-19.221zm-114.585 147.186a463.755 463.755 0 0 0 71.918 17.865l-13.924 32.134c-13.443-2.235-26.864-5.11-40.037-8.559zm-8.687-20.048-18.528-42.757a550.007 550.007 0 0 0 119.993 32.532l-14.3 33a447.463 447.463 0 0 1 -87.165-22.775zm-27.683-63.891-11.817-27.27c3.893.885 8.3 1.7 13.266 2.465 7.242 1.114 15.345 2.044 24.059 2.782a462.039 462.039 0 0 0 122.942 31.156l-12.71 29.321a533.991 533.991 0 0 1 -135.74-38.454zm81.045-20.044c26.362-.183 51.033-1.857 69.914-4.761 4.963-.764 9.373-1.58 13.266-2.465l-9.105 21.011a446.255 446.255 0 0 1 -74.079-13.785zm-4.845-31.982c45.506 0 75.51 4.246 89.167 8-13.657 3.754-43.661 8-89.167 8-18.114 0-33.762-.674-46.91-1.721-.184-.076-.369-.146-.552-.222l-.072.174c-19.559-1.584-33.5-4-41.633-6.231 13.657-3.754 43.661-8 89.167-8zm0 227.88-13.873-32.014q12.667 2.957 25.491 5.2z"/></g></svg>